<svg width="274" height="61" viewBox="0 0 274 61" fill="none" xmlns="http://www.w3.org/2000/svg">
<path d="M85.2007 35.3951L83.3703 41.3555C83.1863 41.9708 82.9472 42.2463 82.055 42.2463H76.5545C75.8463 42.2463 75.7543 41.8239 75.9015 41.3096L85.6698 11.9025C86.2769 9.83608 87.2242 9.32178 89.1006 9.32178H91.9152C94.0308 9.32178 94.831 9.60648 95.5761 11.9025L105.354 41.3096C105.492 41.6861 105.446 42.2463 104.737 42.2463H99.1541C98.4458 42.2463 97.9767 42.2004 97.7928 41.5024L95.9624 35.4043H85.2007V35.3951ZM94.2699 29.5816L92.4763 23.6212L90.7379 16.9169H90.4528L88.6683 23.6212L86.8839 29.5816H94.2699Z" fill="#476DAB"/>
<path d="M124.754 41.9616C122.455 42.6595 119.962 42.7606 118.316 42.7606C112.916 42.7606 110.801 40.4554 110.801 36.0103V22.6385H107.517C106.809 22.6385 106.717 22.2619 106.717 21.7476V19.2128C106.717 18.5975 106.763 18.4598 107.471 18.2761L110.948 17.4771L111.27 13.0688C111.316 12.3249 111.656 12.0861 112.355 11.9024L116.678 10.4972C117.239 10.3595 117.616 10.5891 117.616 11.3422V17.6332H122.786C123.485 17.6332 123.54 17.9087 123.54 18.4322V21.766C123.54 22.3813 123.54 22.6568 122.786 22.6568H117.616V34.5685C117.616 36.3961 118.509 36.9655 120.348 36.9655C121.24 36.9655 123.025 36.7818 123.871 36.6348C124.386 36.543 124.625 36.6808 124.671 37.094L125.232 41.034C125.278 41.4564 125.472 41.7411 124.763 41.9799L124.754 41.9616Z" fill="#476DAB"/>
<path d="M140.012 42.0532C138.697 42.5676 136.535 42.7604 135.082 42.7604C131.32 42.7604 129.158 41.3461 129.158 36.2398V8.84397C129.158 7.95313 129.489 7.95312 130.188 7.95312H134.981C135.689 7.95312 136.02 8.09088 136.02 8.79805V34.8346C136.02 36.3775 136.296 36.9929 137.758 36.9929C138.273 36.9929 139.074 36.901 139.497 36.8459C140.058 36.8 140.242 36.901 140.297 37.4153L140.72 40.9787C140.867 41.6767 140.72 41.7318 140.021 42.0532H140.012Z" fill="#476DAB"/>
<path d="M164.296 41.0158C161.435 42.3751 157.48 42.7608 154.334 42.7608C145.881 42.7608 143.389 39.2892 143.389 34.9269C143.389 30.0961 146.58 26.5327 153.304 26.5327H158.473V25.7796C158.473 24.0438 157.912 22.455 154.38 22.455C152.449 22.455 149.487 22.8315 147.758 23.3459C146.958 23.5295 146.728 23.3459 146.59 22.7397L145.835 19.4518C145.651 18.7539 145.789 18.561 146.304 18.3773C149.119 17.3854 152.32 16.9722 155.374 16.9722C162.18 16.9722 165.289 19.9294 165.289 25.6051V39.2066C165.289 40.0056 165.188 40.5199 164.305 41.0342L164.296 41.0158ZM154.711 31.0788C152.973 31.0788 150.434 31.4094 150.434 34.4125C150.434 36.6167 152.035 37.3698 154.527 37.3698C155.273 37.3698 157.158 37.278 158.427 36.7636V31.0879H154.711V31.0788Z" fill="#476DAB"/>
<path d="M178.183 22.8681V41.3922C178.183 42.0993 178.091 42.2371 177.199 42.2371H172.361C171.662 42.2371 171.377 42.0993 171.377 41.3922V21.2701C171.377 19.1577 171.892 17.9822 174.293 17.4679C175.553 17.2291 179.269 16.9995 181.108 16.9995C189.847 16.9995 193.885 20.2874 193.885 29.1499V41.3922C193.885 42.0993 193.793 42.2371 192.9 42.2371H188.007C187.308 42.2371 187.023 42.0993 187.023 41.3922V28.7275C187.023 24.6498 185.799 22.6293 181.384 22.6293C180.777 22.6293 179.508 22.6293 178.193 22.8589L178.183 22.8681Z" fill="#476DAB"/>
<path d="M208.812 42.7606C205.575 42.7606 201.675 42.0993 198.897 40.4554C198.373 40.1248 198.281 39.8401 198.612 39.2339L199.973 36.0012C200.304 35.294 200.534 35.1471 201.242 35.4869C203.22 36.3318 206.55 37.1767 208.527 37.1767C210.781 37.1767 211.581 36.2767 211.581 35.1103C211.581 33.8429 210.45 33.1358 207.304 31.9602C202.328 30.0867 199.559 28.2132 199.559 24.3651C199.559 20.2874 202.512 16.9995 208.72 16.9995C211.544 16.9995 214.598 17.5138 216.989 18.5883C217.688 18.919 217.642 19.1486 217.413 19.9016L216.235 22.9048C215.996 23.612 215.766 23.612 215.058 23.3732C212.758 22.666 210.928 22.2895 208.858 22.2895C207.166 22.2895 206.458 23.2722 206.458 24.0712C206.458 25.3386 207.497 25.9447 210.358 27.0284C214.874 28.7642 218.581 30.3989 218.581 35.1838C218.581 40.2442 214.635 42.7422 208.812 42.7422V42.7606Z" fill="#FCBE23"/>
<path d="M238.588 36.947V18.4596C238.588 17.7524 238.68 17.5688 239.573 17.5688H244.411C245.064 17.5688 245.395 17.8535 245.395 18.4596V38.4899C245.395 40.593 244.687 41.8145 242.479 42.3288C241.026 42.5584 237.595 42.7971 235.709 42.7971C226.64 42.7971 223.311 39.4634 223.311 30.6008V18.4504C223.311 17.7432 223.412 17.5596 224.295 17.5596H229.179C229.841 17.5596 230.172 17.8443 230.172 18.4504V31.0233C230.172 35.1469 230.973 37.1674 235.388 37.1674C235.995 37.1674 237.264 37.1214 238.579 36.9286L238.588 36.947Z" fill="#FCBE23"/>
<path d="M258.308 22.8681V41.3922C258.308 42.0993 258.217 42.2371 257.324 42.2371H252.486C251.787 42.2371 251.502 42.0993 251.502 41.3922V21.2701C251.502 19.1577 252.017 17.9822 254.418 17.4679C255.687 17.2291 259.394 16.9995 261.233 16.9995C269.972 16.9995 274.01 20.2874 274.01 29.1499V41.3922C274.01 42.0993 273.918 42.2371 273.025 42.2371H268.132C267.433 42.2371 267.148 42.0993 267.148 41.3922V28.7275C267.148 24.6498 265.924 22.6293 261.509 22.6293C260.902 22.6293 259.633 22.6293 258.318 22.8589L258.308 22.8681Z" fill="#FCBE23"/>
<path d="M77.6308 57.4273H77.0329C76.8582 57.4273 76.7754 57.3814 76.7754 57.1977V49.8046C76.7754 48.4913 77.3273 47.4443 79.1025 47.4443H83.0209C83.2048 47.4443 83.2508 47.527 83.2508 47.7015V48.1974C83.2508 48.3811 83.2048 48.4362 83.0209 48.4362H79.1117C78.2379 48.4362 77.87 48.8311 77.87 49.6485V51.77H82.4506C82.6345 51.77 82.6621 51.8251 82.6621 52.0088V52.4772C82.6621 52.6517 82.6345 52.7343 82.4506 52.7343H77.87V57.1885C77.87 57.3722 77.8148 57.4181 77.6308 57.4181V57.4273Z" fill="#476DAB"/>
<path d="M85.5969 48.6017C85.2106 48.6017 84.8887 48.2987 84.8887 47.9038C84.8887 47.5088 85.2198 47.1782 85.5969 47.1782C85.974 47.1782 86.3144 47.5088 86.3144 47.9038C86.3144 48.2987 86.0016 48.6017 85.5969 48.6017ZM85.9097 57.4275H85.2658C85.137 57.4275 85.0634 57.4 85.0634 57.2439V50.1355C85.0634 49.9793 85.137 49.9518 85.2658 49.9518H85.9097C86.066 49.9518 86.112 49.9793 86.112 50.1355V57.2439C86.112 57.4 86.066 57.4275 85.9097 57.4275Z" fill="#476DAB"/>
<path d="M91.0058 57.4183C90.6747 57.5469 90.2883 57.5745 90.0032 57.5745C89.0926 57.5745 88.7891 57.1336 88.7891 56.2244V47.2149C88.7891 47.0588 88.8351 47.0312 88.9914 47.0312H89.6445C89.8008 47.0312 89.8468 47.0588 89.8468 47.2149V55.9122C89.8468 56.4724 89.9572 56.6561 90.3711 56.6561C90.5551 56.6561 90.7298 56.6285 90.8862 56.6101C90.9874 56.5918 91.0426 56.6285 91.061 56.7203L91.1346 57.1887C91.153 57.3449 91.1346 57.3632 91.0058 57.4183Z" fill="#476DAB"/>
<path d="M93.4973 48.6017C93.111 48.6017 92.7891 48.2987 92.7891 47.9038C92.7891 47.5088 93.1202 47.1782 93.4973 47.1782C93.8744 47.1782 94.2148 47.5088 94.2148 47.9038C94.2148 48.2987 93.902 48.6017 93.4973 48.6017ZM93.81 57.4275H93.1662C93.0374 57.4275 92.9638 57.4 92.9638 57.2439V50.1355C92.9638 49.9793 93.0374 49.9518 93.1662 49.9518H93.81C93.9664 49.9518 94.0124 49.9793 94.0124 50.1355V57.2439C94.0124 57.4 93.9664 57.4275 93.81 57.4275Z" fill="#476DAB"/>
<path d="M102.621 52.9918C102.621 53.7908 102.198 53.9744 101.664 53.9744H97.3136C97.3136 55.9674 98.3714 56.6837 99.6959 56.6837C100.321 56.6837 100.965 56.5092 101.379 56.2888C101.49 56.2337 101.582 56.2429 101.618 56.3439L101.876 56.8398C101.931 56.95 101.903 57.0419 101.802 57.0786C101.131 57.4735 100.349 57.5929 99.6223 57.5929C97.5252 57.5929 96.2559 56.4266 96.2559 53.7357C96.2559 51.1825 97.6264 49.8049 99.5028 49.8049C101.655 49.8049 102.612 51.1274 102.612 52.9918H102.621ZM99.512 50.6866C98.169 50.6866 97.4332 51.7703 97.3596 53.1203H101.628C101.628 51.8254 101.168 50.6866 99.5212 50.6866H99.512ZM99.4384 48.9508L97.9943 46.8569C97.9115 46.7558 97.9391 46.6824 98.0771 46.6548L98.9325 46.4436C99.0888 46.4252 99.1348 46.4895 99.1716 46.5813L100.101 48.7028C100.174 48.859 100.147 48.859 100.045 48.9049L99.6867 49.0335C99.5855 49.0794 99.5028 49.0518 99.4292 48.9508H99.4384Z" fill="#476DAB"/>
<path d="M108.738 51.5588C108.213 51.0629 107.514 50.7323 106.659 50.7323C106.392 50.7323 106.061 50.7323 105.675 50.8333V57.2437C105.675 57.3998 105.629 57.4274 105.472 57.4274H104.828C104.7 57.4274 104.645 57.3998 104.645 57.2437V50.8241C104.645 50.2363 104.792 49.9792 105.399 49.8873C105.831 49.8322 106.227 49.8047 106.585 49.8047C107.698 49.8047 108.627 50.1353 109.382 50.7874C109.455 50.8608 109.455 50.9159 109.4 50.9894L108.958 51.5588C108.857 51.6599 108.82 51.6323 108.747 51.568L108.738 51.5588Z" fill="#476DAB"/>
<path d="M116.494 52.9915C116.494 53.7905 116.071 53.9742 115.537 53.9742H111.187C111.187 55.9671 112.244 56.6835 113.569 56.6835C114.194 56.6835 114.838 56.509 115.252 56.2886C115.363 56.2335 115.455 56.2427 115.491 56.3437L115.749 56.8396C115.804 56.9498 115.776 57.0417 115.675 57.0784C115.004 57.4733 114.222 57.5927 113.495 57.5927C111.398 57.5927 110.129 56.4263 110.129 53.7354C110.129 51.1823 111.499 49.8047 113.376 49.8047C115.528 49.8047 116.485 51.1272 116.485 52.9915H116.494ZM113.385 50.6863C112.042 50.6863 111.306 51.7701 111.233 53.1201H115.501C115.501 51.8252 115.041 50.6863 113.394 50.6863H113.385Z" fill="#476DAB"/>
<path d="M124.89 57.5833C124.016 57.5833 122.949 57.4272 122.195 57.0231C122.094 56.9772 122.038 56.8945 122.112 56.766L122.342 56.2792C122.388 56.169 122.48 56.1323 122.609 56.1782C123.363 56.5364 124.218 56.6925 124.89 56.6925C125.856 56.6925 126.527 56.2976 126.527 55.4986C126.527 54.7455 125.856 54.3873 124.669 53.9465C123.032 53.3771 122.415 52.8628 122.415 51.7974C122.415 50.6402 123.298 49.7861 124.908 49.7861C125.69 49.7861 126.389 49.8963 127.116 50.1994C127.217 50.2453 127.254 50.328 127.217 50.4382L126.987 50.9892C126.932 51.0903 126.886 51.0903 126.785 51.0443C126.058 50.7596 125.515 50.6586 124.871 50.6586C123.998 50.6586 123.427 51.0994 123.427 51.724C123.427 52.4403 123.924 52.7066 125.221 53.1658C126.463 53.625 127.52 54.1761 127.52 55.4435C127.52 56.8578 126.398 57.565 124.871 57.565L124.89 57.5833Z" fill="#476DAB"/>
<path d="M132.33 57.5834C130.224 57.5834 129.074 56.2426 129.074 53.6986C129.074 51.1546 130.445 49.7954 132.367 49.7954C134.492 49.7954 135.632 51.2189 135.632 53.6527C135.632 56.0864 134.446 57.5834 132.321 57.5834H132.33ZM132.376 50.6771C130.776 50.6771 130.123 52.0547 130.123 53.6527C130.123 55.416 130.675 56.7109 132.349 56.7109C134.023 56.7109 134.584 55.1772 134.584 53.6894C134.584 52.119 134.142 50.6679 132.376 50.6679V50.6771Z" fill="#476DAB"/>
<path d="M139.93 57.4183C139.598 57.5469 139.212 57.5745 138.927 57.5745C138.016 57.5745 137.713 57.1336 137.713 56.2244V47.2149C137.713 47.0588 137.75 47.0312 137.915 47.0312H138.568C138.725 47.0312 138.771 47.0588 138.771 47.2149V55.9122C138.771 56.4724 138.881 56.6561 139.295 56.6561C139.479 56.6561 139.654 56.6285 139.81 56.6101C139.911 56.5918 139.966 56.6285 139.985 56.7203L140.058 57.1887C140.077 57.3449 140.058 57.3632 139.93 57.4183Z" fill="#476DAB"/>
<path d="M147.105 57.1151C146.249 57.4733 145.238 57.5835 144.336 57.5835C141.908 57.5835 141.301 56.4447 141.301 55.2508C141.301 53.8273 142.267 52.7344 144.355 52.7344H146.249V52.3487C146.249 51.3843 145.955 50.7139 144.428 50.7139C143.803 50.7139 142.956 50.8608 142.432 51.0262C142.303 51.0721 142.23 51.0721 142.193 50.9435L142.055 50.4292C142.027 50.3282 142.073 50.2547 142.165 50.218C142.846 49.9516 143.821 49.8047 144.603 49.8047C146.442 49.8047 147.316 50.6312 147.316 52.2109V56.7845C147.316 56.959 147.243 57.0692 147.114 57.1243L147.105 57.1151ZM144.391 53.6436C143.692 53.6436 142.34 53.7722 142.34 55.2508C142.34 56.408 143.297 56.7202 144.327 56.7202C144.667 56.7202 145.578 56.6468 146.24 56.4172V53.6436H144.391Z" fill="#476DAB"/>
<path d="M150.35 48.6017C149.964 48.6017 149.633 48.2987 149.633 47.9038C149.633 47.5088 149.964 47.1782 150.35 47.1782C150.737 47.1782 151.059 47.5088 151.059 47.9038C151.059 48.2987 150.746 48.6017 150.35 48.6017ZM150.663 57.4275H150.019C149.89 57.4275 149.817 57.4 149.817 57.2439V50.1355C149.817 49.9793 149.89 49.9518 150.019 49.9518H150.663C150.819 49.9518 150.865 49.9793 150.865 50.1355V57.2439C150.865 57.4 150.829 57.4275 150.663 57.4275Z" fill="#476DAB"/>
<path d="M157.626 51.5588C157.102 51.0629 156.403 50.7323 155.548 50.7323C155.281 50.7323 154.95 50.7323 154.563 50.8333V57.2437C154.563 57.3998 154.517 57.4274 154.361 57.4274H153.717C153.588 57.4274 153.533 57.3998 153.533 57.2437V50.8241C153.533 50.2363 153.68 49.9792 154.287 49.8873C154.711 49.8322 155.115 49.8047 155.474 49.8047C156.587 49.8047 157.516 50.1353 158.27 50.7874C158.344 50.8608 158.344 50.9159 158.289 50.9894L157.847 51.5588C157.746 51.6599 157.709 51.6323 157.636 51.568L157.626 51.5588Z" fill="#476DAB"/>
<path d="M165.381 52.9915C165.381 53.7905 164.948 53.9742 164.424 53.9742H160.073C160.073 55.9671 161.131 56.6835 162.456 56.6835C163.081 56.6835 163.725 56.509 164.139 56.2886C164.249 56.2335 164.341 56.2427 164.378 56.3437L164.636 56.8396C164.691 56.9498 164.663 57.0417 164.562 57.0784C163.891 57.4733 163.109 57.5927 162.382 57.5927C160.285 57.5927 159.016 56.4263 159.016 53.7354C159.016 51.1823 160.386 49.8047 162.272 49.8047C164.424 49.8047 165.381 51.1272 165.381 52.9915ZM162.272 50.6863C160.929 50.6863 160.193 51.7701 160.119 53.1201H164.378C164.378 51.8252 163.918 50.6863 162.272 50.6863Z" fill="#476DAB"/>
<path d="M174.534 49.7955C175.03 49.7955 175.683 49.8415 176.355 50.0527V47.2057C176.355 47.0495 176.392 47.022 176.557 47.022H177.229C177.357 47.022 177.413 47.0495 177.413 47.2057V56.858C177.413 56.9682 177.367 57.0417 177.275 57.0876C176.309 57.5009 175.233 57.5836 174.377 57.5836C172.041 57.5836 171.121 56.1325 171.121 53.7998C171.121 51.6783 172.179 49.7955 174.534 49.7955ZM174.561 56.6835C175.058 56.6835 175.858 56.5733 176.364 56.3804V50.9803C175.582 50.7139 175.049 50.6772 174.607 50.6772C173.209 50.6772 172.216 51.6599 172.216 53.7814C172.216 55.9029 173.154 56.6743 174.57 56.6743L174.561 56.6835Z" fill="#476DAB"/>
<path d="M179.839 49.9423H180.483C180.639 49.9423 180.685 49.9698 180.685 50.126V54.0016C180.685 55.8568 181.044 56.6466 183.049 56.6466C183.279 56.6466 183.886 56.6282 184.558 56.4997V50.1168C184.558 49.9607 184.604 49.9331 184.76 49.9331H185.413C185.542 49.9331 185.615 49.9607 185.615 50.1168V56.4997C185.615 57.0231 185.358 57.3446 184.834 57.4364C184.309 57.5099 183.435 57.565 182.976 57.565C180.52 57.565 179.637 56.6374 179.637 54.0751V50.1168C179.637 49.9607 179.683 49.9331 179.839 49.9331V49.9423Z" fill="#476DAB"/>
<path d="M198.291 56.1785V52.7712C198.024 52.7161 197.712 52.6977 197.436 52.6977C196.764 52.6977 196.139 52.8447 195.467 53.1661C195.311 53.2212 195.265 53.2763 195.173 53.1202L194.943 52.6243C194.888 52.5232 194.915 52.4406 195.017 52.3579C195.633 51.9446 196.562 51.7059 197.399 51.7059C197.895 51.7059 198.181 51.7334 198.567 51.7885C199.183 51.8987 199.376 52.1467 199.376 52.7712V56.4448C199.376 56.656 199.33 56.7846 199.146 56.8856C198.116 57.501 196.663 57.5836 196.028 57.5836C193.444 57.5836 191.834 56.0131 191.834 52.56C191.834 49.3272 193.536 47.3159 196.166 47.3159C196.976 47.3159 197.932 47.4169 198.907 47.9129C199.008 47.968 199.036 48.0415 198.962 48.1976L198.696 48.7945C198.622 48.9047 198.585 48.9415 198.457 48.8772C197.758 48.5374 196.93 48.3904 196.203 48.3904C193.876 48.3904 192.965 50.3558 192.965 52.5783C192.965 54.8009 193.738 56.5826 196.148 56.5826C196.58 56.5826 197.528 56.5091 198.3 56.1693L198.291 56.1785Z" fill="#476DAB"/>
<path d="M205.742 51.5588C205.217 51.0629 204.518 50.7323 203.663 50.7323C203.396 50.7323 203.065 50.7323 202.679 50.8333V57.2437C202.679 57.3998 202.633 57.4274 202.476 57.4274H201.832C201.704 57.4274 201.648 57.3998 201.648 57.2437V50.8241C201.648 50.2363 201.796 49.9792 202.403 49.8873C202.826 49.8322 203.23 49.8047 203.589 49.8047C204.702 49.8047 205.631 50.1353 206.385 50.7874C206.459 50.8608 206.459 50.9159 206.404 50.9894L205.962 51.5588C205.861 51.6599 205.824 51.6323 205.751 51.568L205.742 51.5588Z" fill="#476DAB"/>
<path d="M213.21 57.1151C212.355 57.4733 211.343 57.5835 210.442 57.5835C208.023 57.5835 207.406 56.4447 207.406 55.2508C207.406 53.8273 208.372 52.7344 210.46 52.7344H212.355V52.3487C212.355 51.3843 212.051 50.7139 210.534 50.7139C209.908 50.7139 209.062 50.8608 208.538 51.0262C208.409 51.0721 208.335 51.0721 208.298 50.9435L208.151 50.4292C208.124 50.3282 208.17 50.2547 208.262 50.218C208.942 49.9516 209.917 49.8047 210.699 49.8047C212.539 49.8047 213.413 50.6312 213.413 52.2109V56.7845C213.413 56.959 213.339 57.0692 213.21 57.1243V57.1151ZM210.497 53.6436C209.798 53.6436 208.446 53.7722 208.446 55.2508C208.446 56.408 209.402 56.7202 210.423 56.7202C210.764 56.7202 211.683 56.6468 212.336 56.4172V53.6436H210.497Z" fill="#476DAB"/>
<path d="M221.497 57.4274H220.844C220.715 57.4274 220.642 57.3998 220.642 57.2437V53.4415C220.642 51.6231 220.154 50.7231 218.204 50.7231C217.974 50.7231 217.349 50.7415 216.677 50.87V57.2529C216.677 57.409 216.632 57.4366 216.475 57.4366H215.831C215.702 57.4366 215.629 57.409 215.629 57.2529V50.8884C215.629 50.3465 215.886 50.0343 216.402 49.9516C216.861 49.8782 217.818 49.8047 218.269 49.8047C220.706 49.8047 221.69 50.8149 221.69 53.3956V57.2529C221.69 57.409 221.644 57.4366 221.488 57.4366L221.497 57.4274Z" fill="#476DAB"/>
<path d="M227.045 49.7955C227.542 49.7955 228.195 49.8415 228.866 50.0527V47.2057C228.866 47.0495 228.903 47.022 229.069 47.022H229.74C229.869 47.022 229.924 47.0495 229.924 47.2057V56.858C229.924 56.9682 229.878 57.0417 229.786 57.0876C228.821 57.5009 227.744 57.5836 226.889 57.5836C224.553 57.5836 223.633 56.1325 223.633 53.7998C223.633 51.6783 224.691 49.7955 227.045 49.7955ZM227.073 56.6835C227.57 56.6835 228.37 56.5733 228.876 56.3804V50.9803C228.094 50.7139 227.56 50.6772 227.119 50.6772C225.721 50.6772 224.727 51.6599 224.727 53.7814C224.727 55.9029 225.666 56.6743 227.082 56.6743L227.073 56.6835Z" fill="#476DAB"/>
<path d="M240.289 57.5835C237.493 57.5835 236.141 55.6641 236.141 52.4589C236.141 49.2536 237.851 47.3066 240.317 47.3066C243.067 47.3066 244.492 49.2169 244.492 52.4221C244.492 55.6273 243.067 57.5927 240.289 57.5927V57.5835ZM240.344 48.2893C238.164 48.2893 237.235 50.1996 237.235 52.4221C237.235 54.8008 237.962 56.61 240.298 56.61C242.634 56.61 243.361 54.6355 243.361 52.468C243.361 50.3006 242.736 48.2985 240.335 48.2985L240.344 48.2893Z" fill="#476DAB"/>
<path d="M246.773 49.9428H247.417C247.573 49.9428 247.619 49.9703 247.619 50.1265V54.0021C247.619 55.8573 247.978 56.6471 249.983 56.6471C250.213 56.6471 250.83 56.6287 251.492 56.5001V50.1173C251.492 49.9611 251.529 49.9336 251.694 49.9336H252.347C252.476 49.9336 252.55 49.9611 252.55 50.1173V56.5001C252.55 57.0236 252.292 57.3451 251.768 57.4369C251.243 57.5104 250.37 57.5655 249.919 57.5655C247.463 57.5655 246.58 56.6379 246.58 54.0756V50.1173C246.58 49.9611 246.626 49.9336 246.782 49.9336L246.773 49.9428Z" fill="#476DAB"/>
<path d="M260.847 52.9915C260.847 53.7905 260.424 53.9742 259.891 53.9742H255.54C255.54 55.9671 256.598 56.6835 257.922 56.6835C258.548 56.6835 259.192 56.509 259.606 56.2886C259.716 56.2335 259.808 56.2427 259.845 56.3437L260.102 56.8396C260.158 56.9498 260.13 57.0417 260.029 57.0784C259.357 57.4733 258.576 57.5927 257.849 57.5927C255.752 57.5927 254.482 56.4263 254.482 53.7354C254.482 51.1823 255.853 49.8047 257.739 49.8047C259.891 49.8047 260.847 51.1272 260.847 52.9915ZM257.739 50.6863C256.396 50.6863 255.66 51.7701 255.586 53.1201H259.845C259.845 51.8252 259.385 50.6863 257.739 50.6863Z" fill="#476DAB"/>
<path d="M265.107 57.5833C264.233 57.5833 263.166 57.4272 262.411 57.0231C262.31 56.9772 262.255 56.8945 262.329 56.766L262.559 56.2792C262.605 56.169 262.697 56.1323 262.825 56.1782C263.58 56.5364 264.435 56.6925 265.107 56.6925C266.072 56.6925 266.744 56.2976 266.744 55.4986C266.744 54.7455 266.072 54.3873 264.886 53.9465C263.249 53.3771 262.632 52.8628 262.632 51.7974C262.632 50.6402 263.515 49.7861 265.125 49.7861C265.907 49.7861 266.606 49.8963 267.332 50.1994C267.434 50.2453 267.47 50.328 267.434 50.4382L267.204 50.9892C267.148 51.0903 267.102 51.0903 267.001 51.0443C266.275 50.7596 265.732 50.6586 265.088 50.6586C264.214 50.6586 263.644 51.0994 263.644 51.724C263.644 52.4403 264.141 52.7066 265.438 53.1658C266.679 53.625 267.737 54.1761 267.737 55.4435C267.737 56.8578 266.615 57.565 265.088 57.565L265.107 57.5833Z" fill="#476DAB"/>
<path d="M268.941 50.622V50.2822C268.941 50.1536 268.96 50.1077 269.116 50.0709L270.238 49.8873L270.441 48.5097C270.459 48.3352 270.496 48.3076 270.652 48.2525L271.039 48.1056C271.167 48.078 271.241 48.1331 271.241 48.2617V49.9515H272.906C273.062 49.9515 273.081 50.025 273.081 50.1352V50.622C273.081 50.7322 273.062 50.7965 272.906 50.7965H271.241V55.5905C271.241 56.2885 271.471 56.6467 272.28 56.6467C272.51 56.6467 273.025 56.6007 273.384 56.5365C273.54 56.5181 273.559 56.5365 273.568 56.6375L273.678 57.1793C273.697 57.2804 273.706 57.3355 273.577 57.3906C273.053 57.5467 272.391 57.5742 272.124 57.5742C270.68 57.5742 270.183 56.9773 270.183 55.6823V50.7965H269.116C268.96 50.7965 268.941 50.723 268.941 50.622Z" fill="#476DAB"/>
<path d="M34.0245 5.84997C34.0245 6.97042 33.1139 7.87963 31.9917 7.87963C30.8696 7.87963 29.959 6.97042 29.959 5.84997C29.959 4.72953 30.8696 3.82031 31.9917 3.82031C33.1139 3.82031 34.0245 4.72953 34.0245 5.84997Z" fill="#FCBE23"/>
<path d="M41.8795 6.3095C42.3853 5.37274 42.0358 4.19719 41.0976 3.69207C40.1502 3.17776 38.9821 3.53594 38.4762 4.47271L29.3058 21.4355C28.7999 22.3723 29.1494 23.5478 30.0968 24.053C31.035 24.5581 32.2123 24.2091 32.7182 23.2723L41.8795 6.3095Z" fill="#FCBE23"/>
<path d="M52.5019 20.0669C51.5453 20.6455 50.2944 20.3332 49.7149 19.3689C49.1354 18.4046 49.4481 17.1556 50.4139 16.5862C51.3705 16.0168 52.6215 16.329 53.2009 17.2842C53.7804 18.2393 53.4677 19.4883 52.5019 20.0669Z" fill="#FCBE23"/>
<path d="M56.1457 27.0377C57.2127 26.9918 58.0313 26.0826 57.9853 25.0172C57.9393 23.9519 57.0287 23.1253 55.9617 23.1713L36.6827 24.0437C35.6157 24.0897 34.7879 24.9989 34.8339 26.0642C34.8798 27.1296 35.7905 27.9561 36.8574 27.9102L56.1457 27.0377Z" fill="#FCBE23"/>
<path d="M49.7882 43.2105C48.7948 42.6778 48.4269 41.4472 48.9512 40.4645C49.4755 39.4818 50.708 39.1052 51.7014 39.6287C52.6856 40.1522 53.0627 41.3829 52.5292 42.3747C52.005 43.3574 50.7632 43.734 49.779 43.2105H49.7882Z" fill="#FCBE23"/>
<path d="M59.5187 35.1837C60.5856 35.2112 61.4686 34.3571 61.4962 33.2918C61.5146 32.2264 60.6684 31.3448 59.6014 31.3172L36.6892 30.757C35.6222 30.7295 34.73 31.5744 34.7116 32.6397C34.684 33.7142 35.5394 34.5867 36.6064 34.6143L59.5187 35.1745V35.1837Z" fill="#FCBE23"/>
<path d="M45.6685 49.9056C46.2572 50.7872 47.4621 51.0352 48.3543 50.4382C49.2465 49.8505 49.4857 48.6474 48.897 47.7565L38.2365 31.6937C37.6478 30.8029 36.4429 30.5641 35.5507 31.1519C34.6585 31.7397 34.4101 32.9428 35.008 33.8336L45.6777 49.8964L45.6685 49.9056Z" fill="#FCBE23"/>
<path d="M28.5142 52.7804C28.459 51.66 29.3236 50.7048 30.4458 50.6497C31.5588 50.6038 32.5154 51.4579 32.5705 52.5784C32.6257 53.6896 31.7611 54.6447 30.639 54.6999C29.5168 54.755 28.5694 53.8917 28.5142 52.7804Z" fill="#FCBE23"/>
<path d="M40.4161 56.9865C40.9404 57.9141 42.1269 58.2355 43.0559 57.712C43.9849 57.1794 44.316 56.0038 43.7826 55.0762L32.4874 35.1654C31.9539 34.247 30.7766 33.9163 29.8384 34.4398C28.9094 34.9725 28.5874 36.1572 29.1209 37.0848L40.4253 56.9957L40.4161 56.9865Z" fill="#FCBE23"/>
<path d="M20.6392 52.6976C20.1793 53.6619 20.5933 54.8191 21.5499 55.2783C22.5156 55.7375 23.6746 55.3242 24.1345 54.3599L32.4587 36.9654C32.9186 36.0103 32.5047 34.8531 31.5481 34.3939C30.5823 33.9347 29.4234 34.3388 28.9635 35.3031L20.6484 52.6884L20.6392 52.6976Z" fill="#FCBE23"/>
<path d="M9.35515 39.4819C10.2842 38.8574 11.5443 39.1053 12.1789 40.0421C12.7952 40.9697 12.5469 42.2371 11.6179 42.8616C10.6889 43.4861 9.42873 43.229 8.80327 42.3014C8.1778 41.3738 8.43535 40.1064 9.36435 39.4911L9.35515 39.4819Z" fill="#FCBE23"/>
<path d="M10.9362 16.2281C11.948 16.7057 12.3803 17.9179 11.902 18.9374C11.4237 19.9476 10.2096 20.3793 9.1978 19.9017C8.18601 19.4241 7.75371 18.2118 8.232 17.2016C8.7103 16.1822 9.92444 15.7505 10.9362 16.2281Z" fill="#FCBE23"/>
<path d="M1.88626 24.7235C0.810089 24.751 -0.026931 25.6419 0.00066306 26.7072C0.0282571 27.7726 0.920466 28.6175 1.98744 28.5899L24.9089 28.0297C25.9759 28.0022 26.8221 27.1113 26.7853 26.046C26.7577 24.9806 25.8655 24.1357 24.7985 24.1633L1.88626 24.7235Z" fill="#FCBE23"/>
<path d="M14.9741 9.42272C14.3487 8.56861 13.1345 8.38493 12.2699 9.01862C11.4053 9.65232 11.2213 10.8646 11.856 11.7187L23.2983 27.2488C23.933 28.1029 25.1472 28.2958 26.0118 27.6529C26.8672 27.0192 27.0511 25.8069 26.4257 24.9528L14.9741 9.42272Z" fill="#FCBE23"/>
<path d="M53.5685 3.15941C54.1388 2.25938 53.8721 1.06547 52.9615 0.49606C52.0601 -0.0733472 50.8643 0.202172 50.294 1.1022L35.0805 24.8887C34.5102 25.7979 34.7862 26.9918 35.6876 27.5521C36.589 28.1215 37.7847 27.8551 38.3642 26.9459L53.5685 3.15941Z" fill="#FCBE23"/>
<path d="M22.3519 1.05617C21.8736 0.101031 20.7054 -0.275512 19.7488 0.211239C18.8014 0.69799 18.4243 1.85517 18.9026 2.81031L29.2044 23.2538C29.6919 24.209 30.8508 24.5855 31.8074 24.0988C32.764 23.6212 33.1503 22.4548 32.6628 21.4997L22.3519 1.05617Z" fill="#FCBE23"/>
<path d="M5.38135 32.695C4.32357 32.796 3.53254 33.742 3.63372 34.8073C3.7349 35.8727 4.6823 36.6533 5.74007 36.5523L24.9639 34.7338C26.0309 34.6328 26.8036 33.696 26.7024 32.6307C26.6012 31.5654 25.663 30.7847 24.596 30.8858L5.37215 32.7042L5.38135 32.695Z" fill="#FCBE23"/>
<path d="M8.39742 58.1255C7.87313 59.053 8.20426 60.2378 9.13326 60.7521C10.0623 61.2756 11.2488 60.9449 11.7731 60.0174L26.5267 33.8063C27.051 32.8787 26.7199 31.694 25.7909 31.1705C24.8619 30.647 23.6753 30.9776 23.1511 31.9052L8.39742 58.1163V58.1255Z" fill="#FCBE23"/>
</svg>
